<svg width="77" height="48" viewBox="0 0 77 48" fill="none" xmlns="http://www.w3.org/2000/svg">
<path d="M11.6096 27.45C11.6096 24.237 14.2143 21.6323 17.4273 21.6323H43.9301C44.0948 21.6323 44.2284 21.7659 44.2284 21.9307V21.9307C44.2284 25.1437 41.6237 27.7483 38.4107 27.7483H11.908C11.7432 27.7483 11.6096 27.6148 11.6096 27.45V27.45Z" fill="#0B0A0B"/>
<path d="M45.1535 39.5826C42.6095 42.3015 38.698 43.2578 35.1866 42.0193L4.75784 31.2876C4.28652 31.1213 4.47035 30.4162 4.96284 30.5013L29.6714 34.7681C36.997 36.0331 44.5352 34.8509 51.1218 31.4042V31.4042C51.7529 31.074 52.3637 31.8768 51.877 32.3969L45.1535 39.5826Z" fill="#0B0A0B"/>
<path d="M20.3756 4.92735C24.2521 2.43765 29.2272 2.44807 33.0933 4.95399L71.1488 29.621C71.5702 29.8941 71.2213 30.5392 70.762 30.336L44.1932 18.5785C32.8952 13.5788 20.2349 12.5613 8.28351 15.6925L6.61548 16.1295C5.49226 16.4238 4.82886 14.9122 5.80585 14.2848L20.3756 4.92735Z" fill="#0B0A0B"/>
</svg>
