<svg width="84" height="15" viewBox="0 0 84 15" fill="none" xmlns="http://www.w3.org/2000/svg">
<path d="M7.596 14.8918C6.288 14.8918 5.106 14.6098 4.05 14.0458C3.006 13.4818 2.184 12.7078 1.584 11.7238C0.996 10.7278 0.702 9.61178 0.702 8.37578C0.702 7.13978 0.996 6.02978 1.584 5.04578C2.184 4.04978 3.006 3.26978 4.05 2.70578C5.106 2.14178 6.288 1.85978 7.596 1.85978C8.904 1.85978 10.08 2.14178 11.124 2.70578C12.168 3.26978 12.99 4.04978 13.59 5.04578C14.19 6.02978 14.49 7.13978 14.49 8.37578C14.49 9.61178 14.19 10.7278 13.59 11.7238C12.99 12.7078 12.168 13.4818 11.124 14.0458C10.08 14.6098 8.904 14.8918 7.596 14.8918ZM7.596 12.4078C8.34 12.4078 9.012 12.2398 9.612 11.9038C10.212 11.5558 10.68 11.0758 11.016 10.4638C11.364 9.85178 11.538 9.15578 11.538 8.37578C11.538 7.59578 11.364 6.89978 11.016 6.28778C10.68 5.67578 10.212 5.20178 9.612 4.86578C9.012 4.51778 8.34 4.34378 7.596 4.34378C6.852 4.34378 6.18 4.51778 5.58 4.86578C4.98 5.20178 4.506 5.67578 4.158 6.28778C3.822 6.89978 3.654 7.59578 3.654 8.37578C3.654 9.15578 3.822 9.85178 4.158 10.4638C4.506 11.0758 4.98 11.5558 5.58 11.9038C6.18 12.2398 6.852 12.4078 7.596 12.4078ZM26.0955 4.99178L22.0095 14.6758H19.1115L15.0435 4.99178H17.9415L20.6235 11.5798L23.3955 4.99178H26.0955ZM27.2413 4.99178H30.0493V14.6758H27.2413V4.99178ZM28.6453 3.64178C28.1293 3.64178 27.7093 3.49178 27.3853 3.19178C27.0613 2.89178 26.8993 2.51978 26.8993 2.07578C26.8993 1.63178 27.0613 1.25978 27.3853 0.959781C27.7093 0.65978 28.1293 0.50978 28.6453 0.50978C29.1613 0.50978 29.5813 0.65378 29.9053 0.941781C30.2293 1.22978 30.3913 1.58978 30.3913 2.02178C30.3913 2.48978 30.2293 2.87978 29.9053 3.19178C29.5813 3.49178 29.1613 3.64178 28.6453 3.64178ZM35.9134 14.8198C35.1094 14.8198 34.3234 14.7238 33.5554 14.5318C32.7874 14.3278 32.1754 14.0758 31.7194 13.7758L32.6554 11.7598C33.0874 12.0358 33.6094 12.2638 34.2214 12.4438C34.8334 12.6118 35.4334 12.6958 36.0214 12.6958C37.2094 12.6958 37.8034 12.4018 37.8034 11.8138C37.8034 11.5378 37.6414 11.3398 37.3174 11.2198C36.9934 11.0998 36.4954 10.9978 35.8234 10.9138C35.0314 10.7938 34.3774 10.6558 33.8614 10.4998C33.3454 10.3438 32.8954 10.0678 32.5114 9.67178C32.1394 9.27578 31.9534 8.71178 31.9534 7.97978C31.9534 7.36778 32.1274 6.82778 32.4754 6.35978C32.8354 5.87978 33.3514 5.50778 34.0234 5.24378C34.7074 4.97978 35.5114 4.84778 36.4354 4.84778C37.1194 4.84778 37.7974 4.92578 38.4694 5.08178C39.1534 5.22578 39.7174 5.42978 40.1614 5.69378L39.2254 7.69178C38.3734 7.21178 37.4434 6.97178 36.4354 6.97178C35.8354 6.97178 35.3854 7.05578 35.0854 7.22378C34.7854 7.39178 34.6354 7.60778 34.6354 7.87178C34.6354 8.17178 34.7974 8.38178 35.1214 8.50178C35.4454 8.62178 35.9614 8.73578 36.6694 8.84378C37.4614 8.97578 38.1094 9.11978 38.6134 9.27578C39.1174 9.41978 39.5554 9.68978 39.9274 10.0858C40.2994 10.4818 40.4854 11.0338 40.4854 11.7418C40.4854 12.3418 40.3054 12.8758 39.9454 13.3438C39.5854 13.8118 39.0574 14.1778 38.3614 14.4418C37.6774 14.6938 36.8614 14.8198 35.9134 14.8198ZM48.4459 14.8918C47.1619 14.8918 45.9979 14.6158 44.9539 14.0638C43.9219 13.4998 43.1059 12.7258 42.5059 11.7418C41.9179 10.7458 41.6239 9.62378 41.6239 8.37578C41.6239 7.12778 41.9179 6.01178 42.5059 5.02778C43.1059 4.03178 43.9219 3.25778 44.9539 2.70578C45.9979 2.14178 47.1679 1.85978 48.4639 1.85978C49.5559 1.85978 50.5399 2.05178 51.4159 2.43578C52.3039 2.81978 53.0479 3.37178 53.6479 4.09178L51.7759 5.81978C50.9239 4.83578 49.8679 4.34378 48.6079 4.34378C47.8279 4.34378 47.1319 4.51778 46.5199 4.86578C45.9079 5.20178 45.4279 5.67578 45.0799 6.28778C44.7439 6.89978 44.5759 7.59578 44.5759 8.37578C44.5759 9.15578 44.7439 9.85178 45.0799 10.4638C45.4279 11.0758 45.9079 11.5558 46.5199 11.9038C47.1319 12.2398 47.8279 12.4078 48.6079 12.4078C49.8679 12.4078 50.9239 11.9098 51.7759 10.9138L53.6479 12.6418C53.0479 13.3738 52.3039 13.9318 51.4159 14.3158C50.5279 14.6998 49.5379 14.8918 48.4459 14.8918ZM55.419 1.31978H58.227V14.6758H55.419V1.31978ZM70.5891 4.99178V14.6758H67.9251V13.5238C67.5531 13.9438 67.1091 14.2678 66.5931 14.4958C66.0771 14.7118 65.5191 14.8198 64.9191 14.8198C63.6471 14.8198 62.6391 14.4538 61.8951 13.7218C61.1511 12.9898 60.7791 11.9038 60.7791 10.4638V4.99178H63.5871V10.0498C63.5871 11.6098 64.2411 12.3898 65.5491 12.3898C66.2211 12.3898 66.7611 12.1738 67.1691 11.7418C67.5771 11.2978 67.7811 10.6438 67.7811 9.77978V4.99178H70.5891ZM78.9145 4.84778C79.8145 4.84778 80.6305 5.05778 81.3625 5.47778C82.1065 5.88578 82.6885 6.46778 83.1085 7.22378C83.5285 7.96778 83.7385 8.83778 83.7385 9.83378C83.7385 10.8298 83.5285 11.7058 83.1085 12.4618C82.6885 13.2058 82.1065 13.7878 81.3625 14.2078C80.6305 14.6158 79.8145 14.8198 78.9145 14.8198C77.5825 14.8198 76.5685 14.3998 75.8725 13.5598V14.6758H73.1905V1.31978H75.9985V6.01778C76.7065 5.23778 77.6785 4.84778 78.9145 4.84778ZM78.4285 12.5158C79.1485 12.5158 79.7365 12.2758 80.1925 11.7958C80.6605 11.3038 80.8945 10.6498 80.8945 9.83378C80.8945 9.01778 80.6605 8.36978 80.1925 7.88978C79.7365 7.39778 79.1485 7.15178 78.4285 7.15178C77.7085 7.15178 77.1145 7.39778 76.6465 7.88978C76.1905 8.36978 75.9625 9.01778 75.9625 9.83378C75.9625 10.6498 76.1905 11.3038 76.6465 11.7958C77.1145 12.2758 77.7085 12.5158 78.4285 12.5158Z" fill="#0B0A0B"/>
</svg>
